<svg width="58" height="41" viewBox="0 0 58 41" fill="none" xmlns="http://www.w3.org/2000/svg">
<path d="M9 39L19.5 32.5" stroke="#0A2A32" stroke-width="2"/>
<path d="M1 36.5L11.5 30" stroke="#0A2A32" stroke-width="2"/>
<path d="M3 28.5L13.5 22" stroke="#0A2A32" stroke-width="2"/>
<path d="M23.5 39C31.1 36.2 36.5 32.5 38.5 23L26 29.5L23.5 39Z" fill="#94CE3E" stroke="#0A2A32" stroke-width="2"/>
<path d="M30 9C23 7.5 12.712 9.71623 7.99993 16.3782L20 17.5L30 9Z" fill="#94CE3E" stroke="#0A2A32" stroke-width="2"/>
<path d="M55.9999 2C35.9999 0.500016 22.6665 14 17.9999 20C18.8332 21.8333 22.0999 27.6 24.4999 30C25.2248 29.7075 26.0086 29.3734 26.839 29C29.813 27.6627 33.3857 25.8206 36.9999 23.5737C45.6017 18.2261 54.4389 10.5854 55.9999 2Z" fill="#94CE3E"/>
<path d="M17.9999 20L17.2105 19.3861L16.8393 19.8633L17.0895 20.4138L17.9999 20ZM55.9999 2L56.9837 2.17889L57.1825 1.08589L56.0747 1.0028L55.9999 2ZM24.4999 30L23.7928 30.7071L24.2606 31.1749L24.8741 30.9274L24.4999 30ZM26.839 29L26.4289 28.088L26.4289 28.088L26.839 29ZM36.9999 23.5737L37.5279 24.423L37.5279 24.423L36.9999 23.5737ZM18.7892 20.6139C23.3886 14.7004 36.4343 1.53541 55.9251 2.9972L56.0747 1.0028C35.5654 -0.535375 21.9445 13.2996 17.2105 19.3861L18.7892 20.6139ZM17.0895 20.4138C17.5304 21.3838 18.5793 23.3237 19.8123 25.3141C21.0375 27.292 22.505 29.4193 23.7928 30.7071L25.207 29.2929C24.0948 28.1807 22.7289 26.2246 21.5125 24.2609C20.3038 22.3097 19.3027 20.4495 18.9102 19.5862L17.0895 20.4138ZM24.8741 30.9274C25.6119 30.6296 26.4076 30.2904 27.2491 29.912L26.4289 28.088C25.6095 28.4564 24.8377 28.7853 24.1257 29.0726L24.8741 30.9274ZM27.2491 29.912C30.2605 28.5579 33.8729 26.6952 37.5279 24.423L36.4719 22.7244C32.8985 24.946 29.3655 26.7675 26.4289 28.088L27.2491 29.912ZM37.5279 24.423C41.8728 21.7217 46.3073 18.4237 49.8642 14.6909C53.413 10.9664 56.1546 6.73945 56.9837 2.17889L55.016 1.82112C54.2842 5.84597 51.8267 9.73204 48.4162 13.3112C45.0138 16.8819 40.7288 20.078 36.4719 22.7244L37.5279 24.423Z" fill="#0A2A32"/>
<circle cx="40" cy="12" r="3" fill="black" stroke="#0A2A32" stroke-width="2"/>
</svg>
